<svg width="27" height="25" viewBox="0 0 27 25" fill="none" xmlns="http://www.w3.org/2000/svg">
<g id="mdi:virus">
<path id="Vector" d="M21.9112 14.5833C22.1457 14.9018 22.4819 15.1412 22.8709 15.2667C23.2598 15.3921 23.6811 15.397 24.0732 15.2807C24.4654 15.1644 24.8078 14.933 25.0506 14.6201C25.2934 14.3072 25.4239 13.9294 25.423 13.5417C25.4239 13.1539 25.2934 12.7761 25.0506 12.4632C24.8078 12.1504 24.4654 11.9189 24.0732 11.8026C23.6811 11.6863 23.2598 11.6912 22.8709 11.8167C22.4819 11.9421 22.1457 12.1815 21.9112 12.5H21.0056C21.0056 10.8646 20.4534 9.37498 19.4595 8.1354L20.9393 6.73957C21.5578 6.84373 22.1873 6.67707 22.6621 6.24998C23.402 5.53123 23.402 4.37498 22.6621 3.64582C21.9001 2.9479 20.6743 2.9479 19.9013 3.64582C19.4485 4.09373 19.2718 4.68748 19.3822 5.27082L17.9024 6.66665C16.8864 5.9479 15.6937 5.46873 14.3795 5.29165V3.83332C14.7171 3.61212 14.971 3.29495 15.104 2.92808C15.237 2.56121 15.2422 2.16384 15.1189 1.79397C14.9956 1.4241 14.7502 1.10107 14.4185 0.872038C14.0868 0.643003 13.6862 0.519944 13.2752 0.520818C12.8641 0.519944 12.4635 0.643003 12.1318 0.872038C11.8002 1.10107 11.5548 1.4241 11.4315 1.79397C11.3081 2.16384 11.3134 2.56121 11.4464 2.92808C11.5794 3.29495 11.8332 3.61212 12.1708 3.83332V5.29165C11.1769 5.42707 10.2493 5.72915 9.40997 6.18748L8.18415 4.53123C8.39397 3.98957 8.33876 3.36457 7.96328 2.86457C7.81771 2.66806 7.63248 2.50056 7.4182 2.37166C7.20391 2.24276 6.96477 2.155 6.71448 2.11339C6.46418 2.07179 6.20765 2.07716 5.95955 2.12919C5.71146 2.18123 5.47669 2.27891 5.26867 2.41665C4.39624 2.98957 4.17537 4.12498 4.79381 4.9479C5.16928 5.45832 5.76563 5.72915 6.37302 5.72915L7.67615 7.47915C7.20128 7.92707 6.8258 8.42707 6.50554 8.97915C6.15741 8.85086 5.77744 8.81996 5.41117 8.89017C5.04489 8.96037 4.70785 9.1287 4.44041 9.37499C3.7005 10.1042 3.7005 11.25 4.44041 11.9792C4.76067 12.2604 5.1472 12.4271 5.54476 12.5C5.54476 13.0625 5.62206 13.6042 5.74354 14.125L4.29685 14.4896C3.83302 14.125 3.1925 13.9687 2.55198 14.125C2.057 14.2521 1.63581 14.5594 1.38107 14.9794C1.12633 15.3994 1.05891 15.8977 1.19364 16.3646C1.32837 16.8315 1.65421 17.2287 2.09949 17.469C2.54476 17.7093 3.073 17.7729 3.56798 17.6458C4.19746 17.4792 4.67233 17.0417 4.87111 16.5L6.53867 16.0729C7.03563 16.8958 7.69823 17.625 8.47128 18.2292L7.2565 20.3125C6.64911 20.3958 6.09693 20.7187 5.77667 21.2708C5.6563 21.4815 5.5811 21.7124 5.55536 21.9505C5.52962 22.1886 5.55385 22.4291 5.62666 22.6584C5.69946 22.8876 5.81943 23.1011 5.9797 23.2866C6.13998 23.4721 6.33742 23.626 6.56076 23.7396C6.7841 23.8531 7.02896 23.924 7.28136 23.9483C7.53376 23.9726 7.78876 23.9497 8.0318 23.8811C8.27484 23.8124 8.50115 23.6992 8.69783 23.5481C8.89451 23.3969 9.05769 23.2106 9.17806 23C9.48727 22.4583 9.47623 21.8333 9.20014 21.3229L10.3818 19.2708C11.2763 19.6042 12.2481 19.7917 13.2752 19.7917H13.474C13.3304 20.0625 13.2752 20.375 13.2752 20.7083C13.3635 21.7187 14.2912 22.4687 15.3514 22.3958C16.4115 22.3229 17.2177 21.4375 17.1404 20.4375C17.0962 19.9167 16.8201 19.4583 16.4226 19.1562C16.9416 18.9375 17.4386 18.6562 17.9024 18.3333L20.4866 20.7708C20.3761 21.3542 20.5528 21.9479 21.0056 22.3958C21.7786 23.0937 22.9934 23.0937 23.7665 22.3958C24.5395 21.6979 24.5064 20.5208 23.7665 19.7917C23.2916 19.3646 22.6621 19.1979 22.0437 19.3021L19.4595 16.8646C20.0006 16.1875 20.4203 15.4167 20.6853 14.5833H21.9112ZM11.6187 12.5C10.7021 12.5 9.96214 11.8021 9.96214 10.9375C9.96214 10.0729 10.7021 9.37499 11.6187 9.37499C12.5353 9.37499 13.2752 10.0729 13.2752 10.9375C13.2752 11.8021 12.5353 12.5 11.6187 12.5ZM15.4839 15.625C14.8765 15.625 14.3795 15.1562 14.3795 14.5833C14.3795 14.0104 14.8765 13.5417 15.4839 13.5417C16.0913 13.5417 16.5882 14.0104 16.5882 14.5833C16.5882 15.1562 16.0913 15.625 15.4839 15.625Z" fill="#FACC15"/>
</g>
</svg>
