<svg width="27" height="25" viewBox="0 0 27 25" fill="none" xmlns="http://www.w3.org/2000/svg">
<g id="mdi:virus">
<path id="Vector" d="M21.9111 14.5833C22.1456 14.9018 22.4819 15.1412 22.8708 15.2667C23.2598 15.3921 23.681 15.397 24.0732 15.2807C24.4653 15.1644 24.8078 14.933 25.0506 14.6201C25.2934 14.3072 25.4239 13.9294 25.4229 13.5417C25.4239 13.1539 25.2934 12.7761 25.0506 12.4632C24.8078 12.1504 24.4653 11.9189 24.0732 11.8026C23.681 11.6863 23.2598 11.6912 22.8708 11.8167C22.4819 11.9421 22.1456 12.1815 21.9111 12.5H21.0055C21.0055 10.8646 20.4534 9.37498 19.4595 8.1354L20.9393 6.73957C21.5577 6.84373 22.1872 6.67707 22.6621 6.24998C23.402 5.53123 23.402 4.37498 22.6621 3.64582C21.9001 2.9479 20.6742 2.9479 19.9012 3.64582C19.4484 4.09373 19.2717 4.68748 19.3822 5.27082L17.9023 6.66665C16.8863 5.9479 15.6936 5.46873 14.3795 5.29165V3.83332C14.7171 3.61212 14.9709 3.29495 15.1039 2.92808C15.2369 2.56121 15.2422 2.16384 15.1188 1.79397C14.9955 1.4241 14.7501 1.10107 14.4185 0.872038C14.0868 0.643003 13.6862 0.519944 13.2751 0.520818C12.8641 0.519944 12.4635 0.643003 12.1318 0.872038C11.8001 1.10107 11.5547 1.4241 11.4314 1.79397C11.3081 2.16384 11.3133 2.56121 11.4463 2.92808C11.5793 3.29495 11.8332 3.61212 12.1708 3.83332V5.29165C11.1769 5.42707 10.2492 5.72915 9.40991 6.18748L8.18409 4.53123C8.39391 3.98957 8.33869 3.36457 7.96322 2.86457C7.81765 2.66806 7.63242 2.50056 7.41813 2.37166C7.20385 2.24276 6.96471 2.155 6.71442 2.11339C6.46412 2.07179 6.20758 2.07716 5.95949 2.12919C5.7114 2.18123 5.47663 2.27891 5.26861 2.41665C4.39618 2.98957 4.17531 4.12498 4.79374 4.9479C5.16922 5.45832 5.76557 5.72915 6.37296 5.72915L7.67609 7.47915C7.20122 7.92707 6.82574 8.42707 6.50548 8.97915C6.15735 8.85086 5.77738 8.81996 5.41111 8.89017C5.04483 8.96037 4.70779 9.1287 4.44035 9.37499C3.70044 10.1042 3.70044 11.25 4.44035 11.9792C4.76061 12.2604 5.14713 12.4271 5.5447 12.5C5.5447 13.0625 5.622 13.6042 5.74348 14.125L4.29679 14.4896C3.83296 14.125 3.19244 13.9687 2.55192 14.125C2.05694 14.2521 1.63575 14.5594 1.38101 14.9794C1.12627 15.3994 1.05885 15.8977 1.19358 16.3646C1.32831 16.8315 1.65415 17.2287 2.09943 17.469C2.5447 17.7093 3.07294 17.7729 3.56792 17.6458C4.1974 17.4792 4.67227 17.0417 4.87105 16.5L6.53861 16.0729C7.03557 16.8958 7.69817 17.625 8.47122 18.2292L7.25644 20.3125C6.64904 20.3958 6.09687 20.7187 5.77661 21.2708C5.65624 21.4815 5.58104 21.7124 5.5553 21.9505C5.52956 22.1886 5.55378 22.4291 5.62659 22.6584C5.6994 22.8876 5.81937 23.1011 5.97964 23.2866C6.13992 23.4721 6.33736 23.626 6.5607 23.7396C6.78404 23.8531 7.0289 23.924 7.2813 23.9483C7.5337 23.9726 7.7887 23.9497 8.03174 23.8811C8.27478 23.8124 8.50109 23.6992 8.69777 23.5481C8.89444 23.3969 9.05763 23.2106 9.178 23C9.48721 22.4583 9.47617 21.8333 9.20008 21.3229L10.3817 19.2708C11.2763 19.6042 12.2481 19.7917 13.2751 19.7917H13.4739C13.3303 20.0625 13.2751 20.375 13.2751 20.7083C13.3635 21.7187 14.2911 22.4687 15.3513 22.3958C16.4115 22.3229 17.2176 21.4375 17.1403 20.4375C17.0962 19.9167 16.8201 19.4583 16.4225 19.1562C16.9415 18.9375 17.4385 18.6562 17.9023 18.3333L20.4865 20.7708C20.3761 21.3542 20.5528 21.9479 21.0055 22.3958C21.7786 23.0937 22.9934 23.0937 23.7664 22.3958C24.5394 21.6979 24.5063 20.5208 23.7664 19.7917C23.2915 19.3646 22.6621 19.1979 22.0436 19.3021L19.4595 16.8646C20.0006 16.1875 20.4202 15.4167 20.6853 14.5833H21.9111ZM11.6186 12.5C10.702 12.5 9.96208 11.8021 9.96208 10.9375C9.96208 10.0729 10.702 9.37499 11.6186 9.37499C12.5352 9.37499 13.2751 10.0729 13.2751 10.9375C13.2751 11.8021 12.5352 12.5 11.6186 12.5ZM15.4838 15.625C14.8764 15.625 14.3795 15.1562 14.3795 14.5833C14.3795 14.0104 14.8764 13.5417 15.4838 13.5417C16.0912 13.5417 16.5882 14.0104 16.5882 14.5833C16.5882 15.1562 16.0912 15.625 15.4838 15.625Z" fill="black"/>
</g>
</svg>
