<svg width="27" height="25" viewBox="0 0 27 25" fill="none" xmlns="http://www.w3.org/2000/svg">
<g id="mdi:virus">
<path id="Vector" d="M21.9111 14.5834C22.1456 14.9018 22.4819 15.1412 22.8708 15.2667C23.2598 15.3922 23.681 15.3971 24.0732 15.2808C24.4653 15.1645 24.8078 14.933 25.0506 14.6202C25.2934 14.3073 25.4239 13.9294 25.4229 13.5417C25.4239 13.154 25.2934 12.7761 25.0506 12.4633C24.8078 12.1504 24.4653 11.9189 24.0732 11.8026C23.681 11.6863 23.2598 11.6913 22.8708 11.8167C22.4819 11.9422 22.1456 12.1816 21.9111 12.5H21.0055C21.0055 10.8646 20.4534 9.37505 19.4595 8.13546L20.9393 6.73963C21.5577 6.8438 22.1872 6.67713 22.6621 6.25005C23.402 5.5313 23.402 4.37505 22.6621 3.64588C21.9001 2.94796 20.6742 2.94796 19.9012 3.64588C19.4484 4.0938 19.2717 4.68755 19.3822 5.27088L17.9023 6.66671C16.8863 5.94796 15.6936 5.4688 14.3795 5.29171V3.83338C14.7171 3.61218 14.9709 3.29501 15.1039 2.92814C15.2369 2.56127 15.2422 2.1639 15.1188 1.79403C14.9955 1.42416 14.7501 1.10113 14.4185 0.872099C14.0868 0.643064 13.6862 0.520005 13.2751 0.520879C12.8641 0.520005 12.4635 0.643064 12.1318 0.872099C11.8001 1.10113 11.5547 1.42416 11.4314 1.79403C11.3081 2.1639 11.3133 2.56127 11.4463 2.92814C11.5793 3.29501 11.8332 3.61218 12.1708 3.83338V5.29171C11.1769 5.42713 10.2492 5.72921 9.40991 6.18755L8.18409 4.5313C8.39391 3.98963 8.33869 3.36463 7.96322 2.86463C7.81765 2.66812 7.63242 2.50062 7.41813 2.37172C7.20385 2.24282 6.96471 2.15506 6.71442 2.11345C6.46412 2.07185 6.20758 2.07722 5.95949 2.12925C5.7114 2.18129 5.47663 2.27898 5.26861 2.41671C4.39618 2.98963 4.17531 4.12505 4.79374 4.94796C5.16922 5.45838 5.76557 5.72921 6.37296 5.72921L7.67609 7.47921C7.20122 7.92713 6.82574 8.42713 6.50548 8.97921C6.15735 8.85092 5.77738 8.82002 5.41111 8.89023C5.04483 8.96043 4.70779 9.12876 4.44035 9.37505C3.70044 10.1042 3.70044 11.25 4.44035 11.9792C4.76061 12.2605 5.14713 12.4271 5.5447 12.5C5.5447 13.0625 5.622 13.6042 5.74348 14.125L4.29679 14.4896C3.83296 14.125 3.19244 13.9688 2.55192 14.125C2.05694 14.2521 1.63575 14.5595 1.38101 14.9795C1.12627 15.3995 1.05885 15.8977 1.19358 16.3646C1.32831 16.8315 1.65415 17.2288 2.09943 17.4691C2.5447 17.7094 3.07294 17.773 3.56792 17.6459C4.1974 17.4792 4.67227 17.0417 4.87105 16.5L6.53861 16.073C7.03557 16.8959 7.69817 17.625 8.47122 18.2292L7.25644 20.3125C6.64904 20.3959 6.09687 20.7188 5.77661 21.2709C5.65624 21.4815 5.58104 21.7125 5.5553 21.9506C5.52956 22.1887 5.55378 22.4292 5.62659 22.6584C5.6994 22.8877 5.81937 23.1011 5.97964 23.2867C6.13992 23.4722 6.33736 23.6261 6.5607 23.7396C6.78404 23.8532 7.0289 23.9241 7.2813 23.9484C7.5337 23.9727 7.7887 23.9498 8.03174 23.8811C8.27478 23.8125 8.50109 23.6993 8.69777 23.5481C8.89444 23.3969 9.05763 23.2107 9.178 23C9.48721 22.4584 9.47617 21.8334 9.20008 21.323L10.3817 19.2709C11.2763 19.6042 12.2481 19.7917 13.2751 19.7917H13.4739C13.3303 20.0625 13.2751 20.375 13.2751 20.7084C13.3635 21.7188 14.2911 22.4688 15.3513 22.3959C16.4115 22.323 17.2176 21.4375 17.1403 20.4375C17.0962 19.9167 16.8201 19.4584 16.4225 19.1563C16.9415 18.9375 17.4385 18.6563 17.9023 18.3334L20.4865 20.7709C20.3761 21.3542 20.5528 21.948 21.0055 22.3959C21.7786 23.0938 22.9934 23.0938 23.7664 22.3959C24.5394 21.698 24.5063 20.5209 23.7664 19.7917C23.2915 19.3646 22.6621 19.198 22.0436 19.3021L19.4595 16.8646C20.0006 16.1875 20.4202 15.4167 20.6853 14.5834H21.9111ZM11.6186 12.5C10.702 12.5 9.96208 11.8021 9.96208 10.9375C9.96208 10.073 10.702 9.37505 11.6186 9.37505C12.5352 9.37505 13.2751 10.073 13.2751 10.9375C13.2751 11.8021 12.5352 12.5 11.6186 12.5ZM15.4838 15.625C14.8764 15.625 14.3795 15.1563 14.3795 14.5834C14.3795 14.0105 14.8764 13.5417 15.4838 13.5417C16.0912 13.5417 16.5882 14.0105 16.5882 14.5834C16.5882 15.1563 16.0912 15.625 15.4838 15.625Z" fill="#29B064"/>
</g>
</svg>
