<svg width="28" height="25" viewBox="0 0 28 25" fill="none" xmlns="http://www.w3.org/2000/svg">
<g id="ic:baseline-people">
<path id="Vector" d="M18.5905 11.4583C20.4185 11.4583 21.883 10.0625 21.883 8.33334C21.883 6.60418 20.4185 5.20834 18.5905 5.20834C16.7625 5.20834 15.2869 6.60418 15.2869 8.33334C15.2869 10.0625 16.7625 11.4583 18.5905 11.4583ZM9.78096 11.4583C11.6089 11.4583 13.0735 10.0625 13.0735 8.33334C13.0735 6.60418 11.6089 5.20834 9.78096 5.20834C7.95299 5.20834 6.47739 6.60418 6.47739 8.33334C6.47739 10.0625 7.95299 11.4583 9.78096 11.4583ZM9.78096 13.5417C7.21519 13.5417 2.07263 14.7604 2.07263 17.1875V19.7917H17.4893V17.1875C17.4893 14.7604 12.3467 13.5417 9.78096 13.5417ZM18.5905 13.5417C18.2711 13.5417 17.9078 13.5625 17.5223 13.5938C18.7997 14.4688 19.6917 15.6458 19.6917 17.1875V19.7917H26.2988V17.1875C26.2988 14.7604 21.1563 13.5417 18.5905 13.5417Z" fill="#FACC15"/>
</g>
</svg>
