<svg width="27" height="25" viewBox="0 0 27 25" fill="none" xmlns="http://www.w3.org/2000/svg">
<g id="mdi:virus">
<path id="Vector" d="M21.9111 14.5833C22.1456 14.9018 22.4818 15.1412 22.8708 15.2667C23.2597 15.3921 23.681 15.3971 24.0731 15.2808C24.4653 15.1645 24.8077 14.933 25.0505 14.6201C25.2934 14.3073 25.4238 13.9294 25.4229 13.5417C25.4238 13.154 25.2934 12.7761 25.0505 12.4632C24.8077 12.1504 24.4653 11.9189 24.0731 11.8026C23.681 11.6863 23.2597 11.6912 22.8708 11.8167C22.4818 11.9421 22.1456 12.1816 21.9111 12.5H21.0055C21.0055 10.8646 20.4533 9.37502 19.4594 8.13543L20.9393 6.7396C21.5577 6.84376 22.1872 6.6771 22.662 6.25002C23.4019 5.53127 23.4019 4.37502 22.662 3.64585C21.9 2.94793 20.6742 2.94793 19.9012 3.64585C19.4484 4.09377 19.2717 4.68751 19.3821 5.27085L17.9023 6.66668C16.8863 5.94793 15.6936 5.46876 14.3794 5.29168V3.83335C14.717 3.61215 14.9709 3.29498 15.1039 2.92811C15.2369 2.56124 15.2421 2.16387 15.1188 1.794C14.9955 1.42413 14.7501 1.1011 14.4184 0.872069C14.0867 0.643034 13.6861 0.519974 13.2751 0.520848C12.864 0.519974 12.4634 0.643034 12.1318 0.872069C11.8001 1.1011 11.5547 1.42413 11.4314 1.794C11.3081 2.16387 11.3133 2.56124 11.4463 2.92811C11.5793 3.29498 11.8331 3.61215 12.1707 3.83335V5.29168C11.1768 5.4271 10.2492 5.72918 9.40988 6.18752L8.18405 4.53127C8.39388 3.9896 8.33866 3.3646 7.96319 2.8646C7.81762 2.66809 7.63239 2.50059 7.4181 2.37169C7.20382 2.24279 6.96468 2.15503 6.71439 2.11342C6.46409 2.07182 6.20755 2.07719 5.95946 2.12922C5.71137 2.18126 5.4766 2.27894 5.26858 2.41668C4.39615 2.9896 4.17528 4.12501 4.79371 4.94793C5.16919 5.45835 5.76554 5.72918 6.37293 5.72918L7.67606 7.47918C7.20119 7.9271 6.82571 8.4271 6.50545 8.97918C6.15732 8.85089 5.77735 8.81999 5.41108 8.8902C5.0448 8.9604 4.70776 9.12873 4.44032 9.37502C3.70041 10.1042 3.70041 11.25 4.44032 11.9792C4.76058 12.2604 5.1471 12.4271 5.54467 12.5C5.54467 13.0625 5.62197 13.6042 5.74345 14.125L4.29676 14.4896C3.83293 14.125 3.19241 13.9688 2.55189 14.125C2.05691 14.2521 1.63572 14.5594 1.38098 14.9795C1.12624 15.3995 1.05882 15.8977 1.19355 16.3646C1.32828 16.8315 1.65412 17.2288 2.0994 17.4691C2.54467 17.7093 3.0729 17.7729 3.56789 17.6458C4.19737 17.4792 4.67224 17.0417 4.87102 16.5L6.53858 16.0729C7.03554 16.8958 7.69814 17.625 8.47119 18.2292L7.2564 20.3125C6.64901 20.3958 6.09684 20.7188 5.77658 21.2708C5.65621 21.4815 5.58101 21.7125 5.55527 21.9505C5.52953 22.1886 5.55375 22.4292 5.62656 22.6584C5.69937 22.8876 5.81934 23.1011 5.97961 23.2866C6.13989 23.4721 6.33733 23.6261 6.56067 23.7396C6.78401 23.8531 7.02886 23.9241 7.28127 23.9484C7.53367 23.9726 7.78867 23.9498 8.03171 23.8811C8.27474 23.8124 8.50106 23.6993 8.69774 23.5481C8.89441 23.3969 9.0576 23.2107 9.17797 23C9.48718 22.4583 9.47614 21.8333 9.20005 21.3229L10.3817 19.2708C11.2762 19.6042 12.248 19.7917 13.2751 19.7917H13.4739C13.3303 20.0625 13.2751 20.375 13.2751 20.7083C13.3634 21.7188 14.2911 22.4688 15.3513 22.3958C16.4114 22.3229 17.2176 21.4375 17.1403 20.4375C17.0961 19.9167 16.82 19.4583 16.4225 19.1563C16.9415 18.9375 17.4385 18.6563 17.9023 18.3333L20.4865 20.7708C20.376 21.3542 20.5527 21.9479 21.0055 22.3958C21.7786 23.0938 22.9933 23.0938 23.7664 22.3958C24.5394 21.6979 24.5063 20.5208 23.7664 19.7917C23.2915 19.3646 22.662 19.1979 22.0436 19.3021L19.4594 16.8646C20.0006 16.1875 20.4202 15.4167 20.6852 14.5833H21.9111ZM11.6186 12.5C10.702 12.5 9.96205 11.8021 9.96205 10.9375C9.96205 10.0729 10.702 9.37502 11.6186 9.37502C12.5352 9.37502 13.2751 10.0729 13.2751 10.9375C13.2751 11.8021 12.5352 12.5 11.6186 12.5ZM15.4838 15.625C14.8764 15.625 14.3794 15.1563 14.3794 14.5833C14.3794 14.0104 14.8764 13.5417 15.4838 13.5417C16.0912 13.5417 16.5881 14.0104 16.5881 14.5833C16.5881 15.1563 16.0912 15.625 15.4838 15.625Z" fill="#FB757C"/>
</g>
</svg>
